<svg width="20" height="18" viewBox="0 0 20 18" fill="none" xmlns="http://www.w3.org/2000/svg">
<path fill-rule="evenodd" clip-rule="evenodd" d="M7.76094 11.6172C7.56894 11.6172 7.37694 11.5442 7.23094 11.3972C6.49294 10.6602 6.08594 9.68019 6.08594 8.63819C6.08594 6.47819 7.84194 4.72119 9.99994 4.72119C11.0379 4.72119 12.0459 5.14019 12.7649 5.87119C13.0549 6.16719 13.0519 6.64119 12.7559 6.93119C12.4609 7.22319 11.9869 7.21819 11.6959 6.92419C11.2569 6.47719 10.6389 6.22119 9.99994 6.22119C8.66894 6.22119 7.58594 7.30519 7.58594 8.63819C7.58594 9.27919 7.83694 9.88319 8.29094 10.3372C8.58394 10.6302 8.58394 11.1042 8.29194 11.3972C8.14494 11.5442 7.95294 11.6172 7.76094 11.6172Z" fill="#130F26"/>
<path fill-rule="evenodd" clip-rule="evenodd" d="M10.5676 12.4913C10.2126 12.4913 9.89657 12.2373 9.83057 11.8753C9.75657 11.4683 10.0266 11.0773 10.4346 11.0033C11.4146 10.8253 12.1906 10.0473 12.3666 9.0663C12.4406 8.6593 12.8306 8.3913 13.2376 8.4613C13.6456 8.5343 13.9166 8.9243 13.8436 9.3323C13.5566 10.9253 12.2946 12.1893 10.7026 12.4793C10.6576 12.4873 10.6116 12.4913 10.5676 12.4913Z" fill="#130F26"/>
<mask id="mask0_25_1972" style="mask-type:alpha" maskUnits="userSpaceOnUse" x="0" y="0" width="17" height="15">
<path fill-rule="evenodd" clip-rule="evenodd" d="M0 0.624512H16.0862V14.7226H0V0.624512Z" fill="white"/>
</mask>
<g mask="url(#mask0_25_1972)">
<path fill-rule="evenodd" clip-rule="evenodd" d="M4.6545 14.7226C4.4925 14.7226 4.3295 14.6696 4.1915 14.5626C2.5005 13.2346 1.0715 11.2876 0.0615 8.93364C-0.0205 8.74364 -0.0205 8.52964 0.0615 8.34064C1.0825 5.97664 2.5205 4.01964 4.2205 2.68264C7.6865 -0.0603611 12.3005 -0.0693612 15.8015 2.70264C16.1265 2.95964 16.1815 3.43164 15.9245 3.75664C15.6665 4.07964 15.1965 4.13664 14.8705 3.87864C11.9045 1.53064 8.0835 1.53864 5.1495 3.86064C3.7135 4.99064 2.4805 6.63664 1.5705 8.63864C2.4715 10.6286 3.6935 12.2646 5.1185 13.3826C5.4445 13.6386 5.5005 14.1106 5.2445 14.4356C5.0965 14.6236 4.8765 14.7226 4.6545 14.7226Z" fill="#130F26"/>
</g>
<mask id="mask1_25_1972" style="mask-type:alpha" maskUnits="userSpaceOnUse" x="6" y="4" width="14" height="13">
<path fill-rule="evenodd" clip-rule="evenodd" d="M6.71777 4.74121H20.0003V16.6894H6.71777V4.74121Z" fill="white"/>
</mask>
<g mask="url(#mask1_25_1972)">
<path fill-rule="evenodd" clip-rule="evenodd" d="M10.0004 16.6894C9.06341 16.6894 8.13141 16.5374 7.23141 16.2384C6.83841 16.1074 6.62541 15.6824 6.75641 15.2894C6.88741 14.8954 7.31041 14.6864 7.70541 14.8144C8.45241 15.0634 9.22441 15.1894 10.0004 15.1894C13.4284 15.1894 16.5614 12.7474 18.4304 8.63642C17.9744 7.63742 17.4434 6.73242 16.8494 5.94242C16.6004 5.61142 16.6664 5.14042 16.9974 4.89142C17.3274 4.64242 17.7984 4.71042 18.0474 5.04042C18.7714 6.00142 19.4074 7.11242 19.9384 8.33842C20.0214 8.52842 20.0214 8.74442 19.9384 8.93342C17.8424 13.7904 14.1274 16.6894 10.0004 16.6894Z" fill="#130F26"/>
</g>
<mask id="mask2_25_1972" style="mask-type:alpha" maskUnits="userSpaceOnUse" x="1" y="0" width="18" height="18">
<path fill-rule="evenodd" clip-rule="evenodd" d="M1.36328 0.000488281H18.6368V17.2735H1.36328V0.000488281Z" fill="white"/>
</mask>
<g mask="url(#mask2_25_1972)">
<path fill-rule="evenodd" clip-rule="evenodd" d="M2.11303 17.2735C1.92103 17.2735 1.72903 17.2005 1.58303 17.0535C1.29003 16.7605 1.29003 16.2865 1.58303 15.9935L17.357 0.219506C17.65 -0.0734942 18.124 -0.0734942 18.417 0.219506C18.71 0.512506 18.71 0.987506 18.417 1.28051L2.64303 17.0535C2.49703 17.2005 2.30503 17.2735 2.11303 17.2735Z" fill="#130F26"/>
</g>
</svg>
