<svg width="20" height="17" viewBox="0 0 20 17" fill="none" xmlns="http://www.w3.org/2000/svg">
<path fill-rule="evenodd" clip-rule="evenodd" d="M9.99987 5.64136C8.66987 5.64136 7.58887 6.72336 7.58887 8.05336C7.58887 9.38236 8.66987 10.4634 9.99987 10.4634C11.3299 10.4634 12.4119 9.38236 12.4119 8.05336C12.4119 6.72336 11.3299 5.64136 9.99987 5.64136ZM9.99987 11.9634C7.84287 11.9634 6.08887 10.2094 6.08887 8.05336C6.08887 5.89636 7.84287 4.14136 9.99987 4.14136C12.1569 4.14136 13.9119 5.89636 13.9119 8.05336C13.9119 10.2094 12.1569 11.9634 9.99987 11.9634Z" fill="#130F26"/>
<mask id="mask0_25_1887" style="mask-type:alpha" maskUnits="userSpaceOnUse" x="0" y="0" width="20" height="17">
<path fill-rule="evenodd" clip-rule="evenodd" d="M0 0.000244141H19.9998V16.1052H0V0.000244141Z" fill="white"/>
</mask>
<g mask="url(#mask0_25_1887)">
<path fill-rule="evenodd" clip-rule="evenodd" d="M1.56975 8.05251C3.42975 12.1615 6.56275 14.6045 9.99975 14.6055C13.4368 14.6045 16.5697 12.1615 18.4298 8.05251C16.5697 3.94451 13.4368 1.50151 9.99975 1.50051C6.56375 1.50151 3.42975 3.94451 1.56975 8.05251ZM10.0017 16.1055H9.99775H9.99675C5.86075 16.1025 2.14675 13.2035 0.06075 8.34851C-0.02025 8.15951 -0.02025 7.94551 0.06075 7.75651C2.14675 2.90251 5.86175 0.00350586 9.99675 0.000505859C9.99875 -0.000494141 9.99875 -0.000494141 9.99975 0.000505859C10.0017 -0.000494141 10.0017 -0.000494141 10.0028 0.000505859C14.1388 0.00350586 17.8527 2.90251 19.9387 7.75651C20.0208 7.94551 20.0208 8.15951 19.9387 8.34851C17.8537 13.2035 14.1388 16.1025 10.0028 16.1055H10.0017Z" fill="#130F26"/>
</g>
</svg>
